<?xml version="1.0" encoding="UTF-8"?>
<svg width="46px" height="46px" viewBox="0 0 46 46" version="1.1" xmlns="http://www.w3.org/2000/svg" xmlns:xlink="http://www.w3.org/1999/xlink">
    <!-- Generator: Sketch 55.2 (78181) - https://sketchapp.com -->
    <title>编组 17</title>
    <desc>Created with Sketch.</desc>
    <defs>
        <linearGradient x1="50%" y1="0%" x2="50%" y2="112.095783%" id="linearGradient-1">
            <stop stop-color="#FD7F5A" offset="0%"></stop>
            <stop stop-color="#E23047" offset="100%"></stop>
        </linearGradient>
    </defs>
    <g id="页面1" stroke="none" stroke-width="1" fill="none" fill-rule="evenodd">
        <g id="商户页面--组局约饭" transform="translate(-334.000000, -777.000000)">
            <g id="编组-11" transform="translate(0.000000, 575.000000)">
                <g id="编组-10" transform="translate(20.000000, 40.000000)">
                    <g id="编组-20" transform="translate(0.000000, 162.000000)">
                        <g id="编组-17" transform="translate(314.000000, 0.000000)">
                            <rect id="矩形" fill="#E3513F" x="0" y="0" width="46" height="46" rx="23"></rect>
                            <g id="编组-22" transform="translate(23.631098, 19.821404) rotate(-45.000000) translate(-23.631098, -19.821404) translate(10.131098, 11.821404)" fill="#FFFFFF">
                                <path d="M5.42842712,10.9357864 L24.1284271,10.9357864 C25.2329966,10.9357864 26.1284271,11.8312169 26.1284271,12.9357864 L26.1284271,13.5357864 C26.1284271,14.6403559 25.2329966,15.5357864 24.1284271,15.5357864 L2.82842712,15.5357864 C2.27614237,15.5357864 1.77614237,15.3119288 1.41421356,14.95 C1.05228475,14.5880712 0.828427125,14.0880712 0.828427125,13.5357864 L0.828427125,2.58578644 C0.828427125,1.48121694 1.72385763,0.585786438 2.82842712,0.585786438 L3.42842712,0.585786438 C4.53299662,0.585786438 5.42842712,1.48121694 5.42842712,2.58578644 L5.42842712,10.9357864 Z" id="形状结合"></path>
                            </g>
                        </g>
                    </g>
                </g>
            </g>
        </g>
    </g>
</svg>