<?xml version="1.0" encoding="UTF-8"?>
<svg width="17px" height="27px" viewBox="0 0 17 27" version="1.1" xmlns="http://www.w3.org/2000/svg" xmlns:xlink="http://www.w3.org/1999/xlink">
    <!-- Generator: Sketch 55.2 (78181) - https://sketchapp.com -->
    <title>编组 2</title>
    <desc>Created with Sketch.</desc>
    <g id="页面1" stroke="none" stroke-width="1" fill="none" fill-rule="evenodd">
        <g id="商户页面--组局约饭" transform="translate(-712.000000, -702.000000)" fill="#888888">
            <g id="编组-11" transform="translate(0.000000, 575.000000)">
                <g id="编组-10" transform="translate(20.000000, 40.000000)">
                    <g id="编组-16" transform="translate(0.000000, 78.000000)">
                        <g id="编组-18">
                            <g id="编组-2" transform="translate(680.000000, 8.000000)">
                                <g id="编组" transform="translate(15.114049, 14.977313) scale(-1, 1) rotate(-45.000000) translate(-15.114049, -14.977313) translate(4.614049, 4.977313)">
                                    <rect id="矩形" x="0.920310217" y="0.077119145" width="20" height="3.87096774" rx="1.93548387"></rect>
                                    <path d="M-4.75710914,7.7545385 L10.5977296,7.7545385 C11.7022991,7.7545385 12.5977296,8.649969 12.5977296,9.7545385 C12.5977296,10.859108 11.7022991,11.7545385 10.5977296,11.7545385 L-4.75710914,11.7545385 C-5.86167864,11.7545385 -6.75710914,10.859108 -6.75710914,9.7545385 C-6.75710914,8.649969 -5.86167864,7.7545385 -4.75710914,7.7545385 Z" id="矩形备份-14" transform="translate(2.920310, 9.754538) rotate(90.000000) translate(-2.920310, -9.754538) "></path>
                                </g>
                            </g>
                        </g>
                    </g>
                </g>
            </g>
        </g>
    </g>
</svg>